<?xml version="1.0" encoding="utf-8"?>
<!-- Generator: Adobe Illustrator 16.0.3, SVG Export Plug-In . SVG Version: 6.00 Build 0)  -->
<!DOCTYPE svg PUBLIC "-//W3C//DTD SVG 1.1//EN" "http://www.w3.org/Graphics/SVG/1.1/DTD/svg11.dtd">
<svg version="1.1" id="Capa_1" xmlns="http://www.w3.org/2000/svg" xmlns:xlink="http://www.w3.org/1999/xlink" x="0px" y="0px"
	 width="16px" height="16px" viewBox="0 0 16 16" enable-background="new 0 0 16 16" xml:space="preserve">
<polygon fill="#02E3FC" points="6.148,4.662 6.319,6.175 7.719,7.416 7.868,0.204 "/>
<polygon fill="#02E3FC" points="9.838,4.651 9.678,6.166 8.286,7.415 8.088,0.204 "/>
<polygon fill="#02E3FC" points="6.148,11.344 6.319,9.831 7.719,8.59 7.868,15.802 "/>
<polygon fill="#02E3FC" points="9.838,11.354 9.678,9.84 8.286,8.592 8.088,15.802 "/>
<polygon fill="#02E3FC" points="9.912,4.752 9.756,6.125 11.368,4.587 "/>
<polygon fill="#02E3FC" points="6.083,4.752 6.239,6.125 4.626,4.587 "/>
<polygon fill="#02E3FC" points="2.82,11.873 5.432,10.058 5.124,10.772 "/>
<polygon fill="#02E3FC" points="13.219,11.873 10.608,10.058 10.915,10.772 "/>
<polygon fill="#02E3FC" points="7.553,7.799 4.999,6.448 0.653,6.448 4.25,8.843 2.99,11.262 6.838,8.424 6.079,8.128 "/>
<polygon fill="#02E3FC" points="8.429,7.799 10.983,6.448 15.331,6.448 11.733,8.843 12.992,11.262 9.145,8.424 9.904,8.128 "/>
<g>
</g>
<g>
</g>
<g>
</g>
<g>
</g>
<g>
</g>
<g>
</g>
<g>
</g>
<g>
</g>
<g>
</g>
<g>
</g>
<g>
</g>
<g>
</g>
<g>
</g>
<g>
</g>
<g>
</g>
</svg>
